<?xml version="1.0" encoding="UTF-8" standalone="no"?>
<svg
   xmlns:dc="http://purl.org/dc/elements/1.1/"
   xmlns:cc="http://creativecommons.org/ns#"
   xmlns:rdf="http://www.w3.org/1999/02/22-rdf-syntax-ns#"
   xmlns:svg="http://www.w3.org/2000/svg"
   xmlns="http://www.w3.org/2000/svg"
   xmlns:sodipodi="http://sodipodi.sourceforge.net/DTD/sodipodi-0.dtd"
   xmlns:inkscape="http://www.inkscape.org/namespaces/inkscape"
   width="600"
   height="485"
   viewBox="0 0 158.75 128.32292"
   version="1.1"
   id="svg8"
   inkscape:version="1.0.2 (e86c870879, 2021-01-15, custom)"
   sodipodi:docname="inflr.svg">
  <defs
     id="defs2" />
  <sodipodi:namedview
     id="base"
     pagecolor="#ffffff"
     bordercolor="#666666"
     borderopacity="1.0"
     inkscape:pageopacity="0.0"
     inkscape:pageshadow="2"
     inkscape:zoom="0.80249972"
     inkscape:cx="345.24344"
     inkscape:cy="389.23706"
     inkscape:document-units="mm"
     inkscape:current-layer="layer1"
     inkscape:document-rotation="0"
     showgrid="false"
     inkscape:window-width="2560"
     inkscape:window-height="1417"
     inkscape:window-x="-8"
     inkscape:window-y="-8"
     inkscape:window-maximized="1"
     units="px" />
  <metadata
     id="metadata5">
    <rdf:RDF>
      <cc:Work
         rdf:about="">
        <dc:format>image/svg+xml</dc:format>
        <dc:type
           rdf:resource="http://purl.org/dc/dcmitype/StillImage" />
        <dc:title></dc:title>
      </cc:Work>
    </rdf:RDF>
  </metadata>
  <g
     inkscape:label="Слой 1"
     inkscape:groupmode="layer"
     id="layer1">
    <g
       id="g907"
       transform="matrix(10.056601,0,0,10.056593,-760.29359,-1169.8705)"
       style="fill:#000000;stroke:none;stroke-width:0;stroke-miterlimit:4;stroke-dasharray:none">
      <path
         style="fill:#000000;stroke:none;stroke-width:0;stroke-linecap:round;stroke-miterlimit:4;stroke-dasharray:none"
         d="m 316.37027,439.86658 c -0.90101,-0.004 -1.69038,0.61423 -2.09969,1.38552 -0.74909,1.35907 -0.99685,2.92166 -1.21461,4.43867 -0.38154,3.05989 -0.41216,6.14908 -0.49224,9.22764 -0.0489,2.46447 -0.072,4.92935 -0.0904,7.39421 -0.78744,1.65254 -1.68351,3.32628 -3.14972,4.47781 -0.46727,0.30958 -1.09676,0.53553 -1.63795,0.29358 -0.50092,-0.38615 -0.5421,-1.08331 -0.55026,-1.65946 -0.0528,-1.29792 0.18906,-2.59286 0.11233,-3.8944 -0.0685,-0.91289 -0.58097,-1.89513 -1.50774,-2.17453 -1.00903,-0.31223 -2.08417,0.20792 -2.76376,0.95015 -1.14482,1.24809 -1.98734,2.7335 -2.83741,4.18814 -0.21819,0.38561 -0.42956,0.77504 -0.63522,1.16746 0.12625,-1.59985 0.31703,-3.19836 0.33587,-4.80424 -0.0345,-0.84635 -0.25271,-1.79266 -0.96333,-2.33022 -0.52729,-0.39641 -1.28842,-0.35141 -1.80207,0.046 -0.92574,0.68618 -1.46563,1.82573 -1.96799,2.83449 -0.84948,1.92546 -1.95467,3.67916 -3.31403,5.26728 -0.5243,0.51806 -1.17113,1.09338 -1.96175,1.01722 -0.53436,-0.0211 -1.04199,-0.33195 -1.28443,-0.80665 -0.49035,-0.79265 -0.45218,-1.73396 -0.45665,-2.62714 0.0202,-1.6997 0.21325,-3.39606 0.3091,-5.09539 0.0486,-0.54019 -0.45834,-1.08407 -1.01072,-0.99626 -0.51737,0.0341 -0.90398,0.52049 -0.91662,1.02305 -0.24913,2.04986 -0.39371,4.1204 -0.3065,6.18556 0.0566,1.36853 0.59944,2.78907 1.73384,3.61846 0.63998,0.49908 1.46751,0.70468 2.27025,0.64493 0.91644,-0.0229 1.71795,-0.56599 2.41611,-1.11009 1.17831,-0.98835 1.96686,-2.1307 2.77172,-3.42634 0.59593,-0.95825 1.13923,-2.14251 1.6011,-3.16933 0.25729,-0.51711 0.54306,-1.08178 0.90678,-1.50874 0.15738,1.7155 -0.12857,3.45675 -0.26696,5.1806 -0.0434,0.768 -0.22123,1.53461 -0.14808,2.30539 0.0637,0.57715 0.52226,1.07349 1.09871,1.1642 0.73252,0.18142 1.46697,-0.29355 1.81258,-0.92234 0.62636,-1.09231 1.14178,-2.24533 1.7804,-3.33166 0.70024,-1.18941 1.39662,-2.4217 2.42019,-3.36799 0.14741,-0.11998 0.35243,-0.32297 0.55156,-0.2471 0.34886,0.26357 0.22764,0.75855 0.24289,1.13206 -0.0274,1.13313 -0.25011,2.26399 -0.15822,3.40311 0.0557,0.86244 0.26354,1.76484 0.82169,2.44664 0.45109,0.5359 1.10799,0.89805 1.81566,0.91791 0.69256,0.0713 1.39949,-0.0667 2.0032,-0.41711 1.04829,-0.57581 1.88723,-1.46592 2.58059,-2.42776 0.0356,4.84068 -0.0527,9.68242 0.0571,14.52238 0.0634,1.74918 0.15344,3.55389 0.84437,5.18683 0.34733,0.80044 0.9668,1.57491 1.86001,1.76681 0.89707,0.20038 1.8968,-0.0754 2.53169,-0.75038 0.94076,-0.89438 1.33796,-2.19928 1.55353,-3.4439 0.40326,-2.5783 -0.0581,-5.22135 -0.90553,-7.66526 -0.6657,-1.86008 -1.61568,-3.64582 -2.96871,-5.09927 2.55313,-1.24967 4.87848,-3.07507 6.47049,-5.45422 0.12738,-0.18163 0.24612,-0.36902 0.36431,-0.55666 0.48112,1.4286 1.06582,2.93746 2.29401,3.89346 0.93336,0.73725 2.25553,0.94014 3.35743,0.47993 1.40834,-0.56679 2.45764,-1.75 3.30115,-2.97274 0.68191,-1.04278 1.3668,-2.37349 1.86022,-3.51792 0.26226,-0.71208 0.41286,-1.20596 0.56096,-1.95098 0.53522,0.0341 1.08057,-0.0345 1.60691,0.0739 0.29061,0.15604 0.17035,0.55841 0.18543,0.82399 -0.0746,1.22403 -0.49263,2.4113 -0.45885,3.65108 8e-5,1.3016 0.45521,2.70752 1.54881,3.49433 0.75829,0.56631 1.73094,0.81932 2.6692,0.69017 1.23767,-0.11508 2.28494,-0.89476 3.16675,-1.71433 1.22347,-1.19087 2.07298,-2.69286 2.93646,-4.14868 0.26596,-0.42466 0.162,-1.03363 -0.26133,-1.31788 -0.45894,-0.36913 -1.20705,-0.16412 -1.45297,0.35988 -0.84092,1.35912 -1.59367,2.83476 -2.81828,3.8941 -0.60489,0.55052 -1.41944,1.04899 -2.26602,0.94402 -0.6978,-0.0578 -1.25027,-0.63004 -1.42696,-1.2855 -0.23726,-0.87439 -0.0266,-1.7747 0.0798,-2.65285 0.1232,-0.94984 0.36434,-1.9062 0.26617,-2.86903 -0.06,-0.67093 -0.42655,-1.33243 -1.05594,-1.62004 -0.77407,-0.41956 -1.69042,-0.26369 -2.52507,-0.32773 -0.10496,-0.96854 -0.14914,-2.06871 -0.87503,-2.80655 -0.43481,-0.48293 -1.25514,-0.40416 -1.67932,0.0532 -0.8319,0.77401 -1.3803,1.83332 -1.61186,2.93988 -0.10688,0.48888 -0.0188,1.05748 0.39412,1.38316 0.4305,0.36808 1.01991,0.42067 1.56174,0.45117 -0.17577,0.8417 -0.43179,1.67954 -0.85003,2.43241 -0.74495,1.4345 -1.5913,2.87802 -2.8949,3.88079 -0.42631,0.3102 -0.9665,0.48169 -1.48417,0.37899 -0.77271,-0.16762 -1.26134,-0.87368 -1.60479,-1.52575 -0.55529,-1.09903 -0.87189,-2.30101 -1.11749,-3.50089 1.41026,-2.60378 2.6938,-5.28735 3.62763,-8.10204 1.01862,-3.03072 1.73948,-6.21836 1.56816,-9.43398 -0.0797,-1.22671 -0.20774,-2.49852 -0.775,-3.60904 -0.43078,-0.84754 -1.36057,-1.43823 -2.32324,-1.3575 -0.95715,0.0325 -1.67247,0.80671 -2.15076,1.56364 -1.07311,1.75912 -1.49248,3.81569 -1.84496,5.81946 -0.67533,4.07259 -0.7756,8.23098 -0.44147,12.34174 0.0752,0.82092 0.19578,1.63663 0.31335,2.45228 -0.3889,0.39201 -0.55045,0.94708 -0.84966,1.40144 -1.3078,2.26586 -3.33598,4.06208 -5.61869,5.32138 -0.24512,0.12948 -0.49972,0.25458 -0.75061,0.38129 -0.006,-2.1296 -0.0129,-4.2592 -0.0194,-6.3888 1.42241,-2.63994 2.79707,-5.32643 3.72309,-8.18727 1.04899,-3.19924 1.64987,-6.58457 1.43982,-9.95791 -0.11447,-1.33327 -0.33567,-2.75728 -1.21297,-3.82267 -0.46557,-0.58943 -1.19504,-0.94449 -1.94692,-0.93521 z m 9.41653,1.92544 c 0.47339,0.026 0.66704,0.54736 0.80686,0.92508 0.30811,1.03301 0.31834,2.13451 0.33474,3.20523 -0.0297,2.36357 -0.56625,4.69334 -1.24208,6.95269 -0.65882,2.13355 -1.50628,4.20858 -2.4884,6.21395 -0.2702,-3.59077 -0.14571,-7.21243 0.32152,-10.77851 0.25825,-1.76602 0.57254,-3.5465 1.22941,-5.21362 0.21621,-0.47926 0.44495,-1.03165 0.93451,-1.28893 0.0333,-0.0112 0.0684,-0.0164 0.10344,-0.0159 z m -9.39296,0.004 c 0.42773,0.039 0.67715,0.45744 0.81525,0.81363 0.42073,1.18475 0.42683,2.45854 0.41539,3.69711 -0.12191,4.31725 -1.31635,8.57779 -3.21464,12.44723 0.10777,-3.77343 0.082,-7.56431 0.38156,-11.3294 0.16257,-1.64151 0.28595,-3.31371 0.885,-4.86078 0.14743,-0.30508 0.31543,-0.76149 0.71744,-0.76779 z m 15.41159,16.31081 c 0.0227,0.20249 0.0322,0.40032 0.0461,0.60487 -0.11848,-0.0214 -0.42964,0.072 -0.28625,-0.13204 0.0689,-0.17607 0.14552,-0.35498 0.23416,-0.52333 l 0.005,0.0387 z m -17.38479,14.50895 c 1.13582,1.4261 1.89463,3.12215 2.42621,4.85269 0.55291,1.97134 0.83292,4.06567 0.43358,6.08086 -0.16035,0.7355 -0.33516,1.55041 -0.88674,2.10775 -0.32782,0.3278 -0.94571,0.27914 -1.16952,-0.14542 -0.45049,-0.75599 -0.54542,-1.65376 -0.66968,-2.50611 -0.25137,-2.19884 -0.18691,-4.41706 -0.21543,-6.62825 0.002,-1.27238 -0.007,-2.54745 0.0372,-3.81734 l 0.0242,0.0305 z"
         id="path901"
         transform="scale(0.26458333)"
         sodipodi:nodetypes="sccccccccccccccccccccccccccccccccccccccccccccccccccccccccccccccccccccccccccccccccccccccccccccccccccssscccccccsscccccccccccccsccccccccs" />
      <path
         style="fill:#000000;stroke:none;stroke-width:0;stroke-linecap:round;stroke-miterlimit:4;stroke-dasharray:none"
         d="m 287.68814,451.15896 c -0.93669,-0.005 -1.76084,0.76745 -1.92331,1.66936 -0.11191,0.69359 0.12514,1.43973 0.67797,1.88909 0.73009,0.66219 1.94309,0.63368 2.65497,-0.0411 0.76961,-0.66179 0.89563,-1.92947 0.25113,-2.71941 -0.38724,-0.50916 -1.02164,-0.81237 -1.66076,-0.79797 z m 0.0835,1.56919 c 0.30371,0.005 0.53778,0.37073 0.37892,0.6477 -0.14941,0.31184 -0.66071,0.31084 -0.79221,-0.0186 -0.14368,-0.28236 0.0937,-0.65225 0.41329,-0.62907 z"
         id="path903"
         transform="scale(0.26458333)" />
    </g>
  </g>
</svg>
